<svg width="24" height="24" viewBox="0 0 24 24" fill="none" xmlns="http://www.w3.org/2000/svg">
<path d="M19.5143 4.48613C17.5314 2.50332 14.3229 2.50332 12.3424 4.48613L10.0713 6.75723L11.2666 7.95254L13.5377 5.68145C14.7986 4.42051 16.9268 4.28691 18.3189 5.68145C19.7135 7.07598 19.5799 9.20176 18.3189 10.4627L16.0479 12.7338L17.2455 13.9314L19.5166 11.6604C21.4947 9.67754 21.4947 6.46895 19.5143 4.48613ZM10.465 18.3189C9.2041 19.5799 7.07598 19.7135 5.68379 18.3189C4.28926 16.9244 4.42285 14.7986 5.68379 13.5377L7.95488 11.2666L6.75723 10.0689L4.48613 12.34C2.50332 14.3229 2.50332 17.5314 4.48613 19.5119C6.46895 21.4924 9.67754 21.4947 11.658 19.5119L13.9291 17.2408L12.7338 16.0455L10.465 18.3189ZM6.10098 4.90801C6.06574 4.87311 6.01815 4.85354 5.96855 4.85354C5.91896 4.85354 5.87137 4.87311 5.83613 4.90801L4.90801 5.83613C4.87311 5.87137 4.85354 5.91896 4.85354 5.96855C4.85354 6.01815 4.87311 6.06574 4.90801 6.10098L17.9018 19.0947C17.9744 19.1674 18.0939 19.1674 18.1666 19.0947L19.0947 18.1666C19.1674 18.0939 19.1674 17.9744 19.0947 17.9018L6.10098 4.90801Z" fill="#00ACFD"/>
</svg>
