<svg width="24" height="24" viewBox="0 0 24 24" fill="none" xmlns="http://www.w3.org/2000/svg">
<path d="M6.95947 19.2804C6.79345 19.4286 6.57538 19.5047 6.35323 19.492C6.13108 19.4794 5.92305 19.379 5.77491 19.213L3.54061 16.7091C3.39247 16.543 3.31635 16.325 3.32899 16.1028C3.34163 15.8807 3.44201 15.6726 3.60803 15.5245C3.77405 15.3764 3.99212 15.3002 4.21427 15.3129C4.43642 15.3255 4.64444 15.4259 4.79259 15.5919L7.02688 18.0959C7.17503 18.2619 7.25115 18.48 7.23851 18.7021C7.22587 18.9243 7.12549 19.1323 6.95947 19.2804ZM14.3606 9.30314C14.5263 9.48885 14.7433 9.62126 14.9843 9.68361C15.2253 9.74595 15.4793 9.73545 15.7143 9.65342C15.9493 9.57139 16.1547 9.42152 16.3045 9.22276C16.4543 9.024 16.5418 8.78528 16.556 8.53678C16.5701 8.28829 16.5102 8.04118 16.3839 7.8267C16.2576 7.61223 16.0706 7.44003 15.8464 7.33187C15.6222 7.22371 15.371 7.18445 15.1245 7.21906C14.8781 7.25367 14.6474 7.36059 14.4617 7.5263C14.2126 7.74852 14.0621 8.06056 14.0431 8.39378C14.0242 8.727 14.1383 9.05411 14.3606 9.30314ZM17.1125 20.1999L11.8961 23.1117C11.6478 23.2512 11.368 23.3249 11.0832 23.3256C10.7984 23.3262 10.5182 23.254 10.2693 23.1157C10.1017 23.0207 9.95054 22.8993 9.8218 22.756C9.572 22.4729 9.42496 22.1139 9.40444 21.7369L9.2005 18.0116L5.12292 13.4419L1.44476 12.8166C1.07256 12.7535 0.732541 12.5666 0.479653 12.2863C0.351897 12.1422 0.24835 11.9783 0.173039 11.801C0.0638565 11.5379 0.0238592 11.2513 0.0568606 10.9685C0.0898607 10.6856 0.194758 10.4159 0.361556 10.1851L3.84637 5.33271C3.99784 5.12571 4.19448 4.95595 4.42136 4.8363C4.64824 4.71666 4.8994 4.65027 5.15577 4.64219L10.0081 4.47269C11.0275 3.687 12.16 3.06028 13.3672 2.61387C16.5472 1.42076 19.5488 1.66585 21.0568 1.9225C21.4332 1.98598 21.7765 2.1767 22.0292 2.4628C22.282 2.74891 22.4289 3.11307 22.4454 3.49445C22.5223 5.01404 22.4044 8.0006 20.8512 11.0169C20.2773 12.1365 19.5458 13.1679 18.6789 14.0797L17.9471 18.9773C17.91 19.2311 17.8156 19.4731 17.6709 19.6849C17.5263 19.8968 17.3353 20.0729 17.1125 20.1999ZM6.50755 12.4734L10.3128 16.7379C13.417 15.9639 21.2174 13.0654 20.7769 3.57776C18.2905 3.15402 10.0185 2.59413 6.50755 12.4734ZM4.99073 11.7186C5.79825 9.53633 6.85087 7.70223 8.14859 6.21631L5.21644 6.31683L1.72464 11.1614L4.99073 11.7186ZM16.2902 18.727L16.7339 15.759C15.1092 16.8995 13.1661 17.7619 10.8985 18.3236L11.0808 21.6466L16.2902 18.727Z" fill="#00ACFD"/>
</svg>
