<svg width="32" height="32" viewBox="0 0 32 32" fill="none" xmlns="http://www.w3.org/2000/svg">
<path fill-rule="evenodd" clip-rule="evenodd" d="M27 15.5C27 14.9597 26.5451 14.5217 25.9839 14.5217H7.01613C6.45494 14.5217 6 14.9597 6 15.5C6 16.0403 6.45494 16.4783 7.01613 16.4783H25.9839C26.5451 16.4783 27 16.0403 27 15.5Z" fill="#01ACFD"/>
<path fill-rule="evenodd" clip-rule="evenodd" d="M27 8.97826C27 8.43798 26.5451 8 25.9839 8H7.01613C6.45494 8 6 8.43798 6 8.97826C6 9.51854 6.45494 9.95652 7.01613 9.95652H25.9839C26.5451 9.95652 27 9.51854 27 8.97826Z" fill="#01ACFD"/>
<path fill-rule="evenodd" clip-rule="evenodd" d="M27 22.0217C27 21.4815 26.5451 21.0435 25.9839 21.0435H7.01613C6.45494 21.0435 6 21.4815 6 22.0217C6 22.562 6.45494 23 7.01613 23H25.9839C26.5451 23 27 22.562 27 22.0217Z" fill="#01ACFD"/>
</svg>
