<svg xmlns="http://www.w3.org/2000/svg" xmlns:xlink="http://www.w3.org/1999/xlink" width="500" zoomAndPan="magnify" viewBox="0 0 375 374.999991" height="500" preserveAspectRatio="xMidYMid meet" version="1.0"><defs><clipPath id="532170208e"><path d="M 66 27 L 365 27 L 365 351.925781 L 66 351.925781 Z M 66 27 " clip-rule="nonzero"/></clipPath><clipPath id="7c8bedc60f"><path d="M 10 23.425781 L 309 23.425781 L 309 349 L 10 349 Z M 10 23.425781 " clip-rule="nonzero"/></clipPath></defs><g clip-path="url(#532170208e)"><path fill="#03c7ff" d="M 133.792969 107.261719 C 187.082031 39.765625 269.710938 68.671875 313.878906 124.046875 C 357.945312 179.292969 342.4375 244.050781 338.890625 261.816406 C 338.492188 263.816406 337.480469 266.3125 339.332031 267.730469 C 341.390625 269.316406 344.191406 265.835938 347.113281 260.117188 C 352.363281 249.636719 356.441406 238.714844 359.347656 227.359375 C 362.257812 216 363.925781 204.460938 364.359375 192.746094 C 366.957031 78.78125 248.523438 -11.550781 143.335938 43.832031 C 79.613281 77.375 65.042969 141.757812 82.164062 189.75 C 84.910156 197.726562 88.644531 205.214844 93.359375 212.207031 C 98.078125 219.203125 103.617188 225.464844 109.980469 231 C 136.1875 253.285156 180.355469 259.636719 206.191406 233.515625 C 226.8125 212.660156 222.191406 181.707031 202.378906 198.199219 C 153.96875 238.480469 91.421875 174.984375 133.808594 107.261719 Z M 70.613281 305.511719 C 161.984375 353.753906 282.699219 319.214844 291.617188 210.144531 C 295.527344 162.265625 272.460938 130.039062 233.507812 106.207031 C 210.765625 92.292969 265.851562 89.503906 300.542969 133.527344 C 325.097656 164.683594 330.410156 206.085938 320.460938 243.917969 C 303.78125 307.367188 247.746094 346.914062 186.957031 351.5 C 181.546875 351.875 176.136719 351.976562 170.71875 351.804688 C 165.300781 351.632812 159.902344 351.191406 154.53125 350.472656 C 149.15625 349.757812 143.832031 348.773438 138.558594 347.515625 C 133.285156 346.261719 128.085938 344.746094 122.964844 342.96875 C 117.84375 341.1875 112.824219 339.15625 107.910156 336.871094 C 102.992188 334.585938 98.203125 332.058594 93.542969 329.289062 C 88.878906 326.519531 84.371094 323.523438 80.007812 320.296875 C 75.648438 317.070312 71.464844 313.636719 67.449219 309.988281 C 67.203125 309.761719 67.003906 309.496094 66.851562 309.199219 C 66.699219 308.898438 66.605469 308.582031 66.570312 308.246094 C 66.53125 307.910156 66.558594 307.582031 66.640625 307.257812 C 66.726562 306.929688 66.863281 306.632812 67.058594 306.355469 C 67.253906 306.082031 67.488281 305.851562 67.765625 305.660156 C 68.042969 305.472656 68.347656 305.339844 68.675781 305.261719 C 69 305.183594 69.332031 305.167969 69.664062 305.210938 C 69.996094 305.253906 70.3125 305.355469 70.609375 305.511719 Z M 70.613281 305.511719 " fill-opacity="1" fill-rule="evenodd"/></g><g clip-path="url(#7c8bedc60f)"><path fill="#00a0f1" d="M 241.21875 268.089844 C 187.929688 335.589844 105.304688 306.683594 61.128906 251.304688 C 17.066406 196.0625 32.570312 131.296875 36.125 113.539062 C 36.519531 111.535156 37.535156 109.039062 35.679688 107.621094 C 33.621094 106.039062 30.820312 109.515625 27.898438 115.234375 C 22.648438 125.714844 18.570312 136.636719 15.664062 147.996094 C 12.753906 159.355469 11.085938 170.894531 10.652344 182.613281 C 8.050781 296.574219 126.484375 386.902344 231.675781 331.523438 C 295.394531 297.980469 309.964844 233.59375 292.851562 185.605469 C 290.101562 177.628906 286.367188 170.140625 281.652344 163.148438 C 276.933594 156.152344 271.394531 149.886719 265.03125 144.347656 C 238.824219 122.070312 194.65625 115.71875 168.820312 141.835938 C 148.199219 162.691406 152.824219 193.625 172.636719 177.152344 C 221.042969 136.855469 283.597656 200.367188 241.207031 268.089844 Z M 304.398438 69.84375 C 213.027344 21.601562 92.308594 56.140625 83.394531 165.207031 C 79.484375 213.085938 102.554688 245.316406 141.503906 269.144531 C 164.246094 283.058594 109.160156 285.847656 74.46875 241.828125 C 49.910156 210.667969 44.601562 169.265625 54.550781 131.433594 C 71.230469 67.984375 127.265625 28.441406 188.054688 23.855469 C 193.460938 23.480469 198.875 23.375 204.292969 23.546875 C 209.710938 23.71875 215.105469 24.164062 220.480469 24.878906 C 225.855469 25.597656 231.179688 26.582031 236.453125 27.835938 C 241.726562 29.089844 246.921875 30.605469 252.042969 32.382812 C 257.167969 34.164062 262.183594 36.195312 267.101562 38.480469 C 272.019531 40.765625 276.808594 43.292969 281.46875 46.0625 C 286.128906 48.832031 290.640625 51.828125 295 55.054688 C 299.359375 58.277344 303.546875 61.714844 307.5625 65.363281 C 307.808594 65.589844 308.003906 65.855469 308.15625 66.152344 C 308.304688 66.453125 308.398438 66.769531 308.433594 67.105469 C 308.46875 67.4375 308.445312 67.765625 308.359375 68.089844 C 308.277344 68.414062 308.136719 68.714844 307.945312 68.988281 C 307.75 69.261719 307.515625 69.496094 307.238281 69.683594 C 306.960938 69.871094 306.660156 70.003906 306.332031 70.082031 C 306.007812 70.160156 305.679688 70.179688 305.347656 70.136719 C 305.015625 70.097656 304.699219 70 304.402344 69.84375 Z M 304.398438 69.84375 " fill-opacity="1" fill-rule="evenodd"/></g></svg>