<?xml version="1.0" encoding="UTF-8" standalone="no"?><!DOCTYPE svg PUBLIC "-//W3C//DTD SVG 1.1//EN" "http://www.w3.org/Graphics/SVG/1.1/DTD/svg11.dtd"><svg width="100%" height="100%" viewBox="0 0 3544 3544" version="1.1" xmlns="http://www.w3.org/2000/svg" xmlns:xlink="http://www.w3.org/1999/xlink" xml:space="preserve" xmlns:serif="http://www.serif.com/" style="fill-rule:evenodd;clip-rule:evenodd;stroke-linejoin:round;stroke-miterlimit:2;"><path d="M2275.46,1164.37c-161.102,-170.21 -389.147,-276.474 -641.816,-276.474c-487.759,-0 -883.757,395.998 -883.757,883.758c-0,487.759 395.998,883.757 883.757,883.757c446.446,0 816.017,-331.757 875.426,-762.026l-247.116,-0c-12.623,-0 -22.872,-10.249 -22.872,-22.872l0,-197.719c0,-9.165 5.402,-17.077 13.194,-20.726c-0,0 426.841,-9.525 486.853,1.752c4.332,0.814 6.183,78.014 6.183,117.834c0,613.546 -498.121,1111.67 -1111.67,1111.67c-613.546,-0 -1111.67,-498.122 -1111.67,-1111.67c-0,-613.547 498.122,-1111.67 1111.67,-1111.67c341.409,0 647.077,154.237 851.106,396.824l224.13,-115.187l-71.952,-140.681l384.397,99.141l-144.603,369.703l-63.513,-124.181l-700.753,360.138l-40.447,20.863c-86.011,-153.398 -250.168,-257.144 -438.365,-257.144c-235.204,0 -432.86,162.045 -487.311,380.461l843.576,0c12.623,0 22.871,10.249 22.871,22.872l0,197.719c0,12.623 -10.248,22.872 -22.871,22.872l-843.576,-0c54.451,218.416 252.107,380.461 487.311,380.461c190.276,0 355.977,-106.05 441.185,-262.243l199.189,103.521c-122.65,228.013 -363.536,383.163 -640.374,383.163c-401.04,-0 -726.633,-325.594 -726.633,-726.633c-0,-401.04 325.593,-726.634 726.633,-726.634c191.148,0 365.156,73.967 494.947,194.83l146.869,-75.48Z" style="fill:url(#_Linear1);"/><defs><linearGradient id="_Linear1" x1="0" y1="0" x2="1" y2="0" gradientUnits="userSpaceOnUse" gradientTransform="matrix(2431.11,-1255.65,1255.65,2431.11,590.219,2155.73)"><stop offset="0" style="stop-color:#310084;stop-opacity:1"/><stop offset="1" style="stop-color:#e800f8;stop-opacity:1"/></linearGradient></defs></svg>